
<svg width="80" height="80" viewBox="0 0 16 16" xmlns="http://www.w3.org/2000/svg">
  <path fill-rule="evenodd"  d="M8 0a8 8 0 00-2.53 15.59c.4.074.55-.174.55-.386 0-.19-.007-.693-.01-1.36-2.24.486-2.71-1.08-2.71-1.08-.364-.924-.89-1.17-.89-1.17-.727-.5.055-.49.055-.49.803.056 1.226.825 1.226.825.715 1.225 1.873.87 2.33.665.073-.517.28-.87.507-1.07-1.78-.202-3.644-.89-3.644-3.96 0-.874.31-1.588.824-2.148-.083-.202-.357-1.015.078-2.116 0 0 .672-.215 2.2.82a7.664 7.664 0 012-.272c.68.003 1.36.093 2 .272 1.526-1.036 2.198-.82 2.198-.82.437 1.101.162 1.914.08 2.116.515.56.823 1.274.823 2.148 0 3.08-1.867 3.755-3.65 3.952.287.25.54.738.54 1.49 0 1.076-.01 1.945-.01 2.21 0 .214.15.463.55.385A8 8 0 008 0z" fill="#FE705A"/>
</svg>
